<svg xmlns="http://www.w3.org/2000/svg" xmlns:xlink="http://www.w3.org/1999/xlink" width="500" zoomAndPan="magnify" viewBox="0 0 375 374.999991" height="500" preserveAspectRatio="xMidYMid meet" version="1.0"><defs><g/><clipPath id="14730ad9a2"><path d="M 202 148 L 226 148 L 226 219 L 202 219 Z M 202 148 " clip-rule="nonzero"/></clipPath><clipPath id="9573bcc6af"><path d="M 174.230469 177.027344 L 216.992188 139.773438 L 254.25 182.53125 L 211.488281 219.789062 Z M 174.230469 177.027344 " clip-rule="nonzero"/></clipPath><clipPath id="fd2ac6f5a2"><path d="M 174.230469 177.027344 L 216.992188 139.773438 L 254.25 182.53125 L 211.488281 219.789062 Z M 174.230469 177.027344 " clip-rule="nonzero"/></clipPath><clipPath id="aca4c9eeeb"><path d="M 212 155 L 219 155 L 219 162 L 212 162 Z M 212 155 " clip-rule="nonzero"/></clipPath><clipPath id="e527f0122b"><path d="M 174.230469 177.027344 L 216.992188 139.773438 L 254.25 182.53125 L 211.488281 219.789062 Z M 174.230469 177.027344 " clip-rule="nonzero"/></clipPath><clipPath id="0ea0e1cde7"><path d="M 174.230469 177.027344 L 216.992188 139.773438 L 254.25 182.53125 L 211.488281 219.789062 Z M 174.230469 177.027344 " clip-rule="nonzero"/></clipPath><clipPath id="d3049d33e7"><path d="M 189 144 L 202 144 L 202 157 L 189 157 Z M 189 144 " clip-rule="nonzero"/></clipPath><clipPath id="a84acda9a0"><path d="M 188.417969 146.78125 L 200.269531 142.878906 L 203.820312 153.648438 L 191.96875 157.554688 Z M 188.417969 146.78125 " clip-rule="nonzero"/></clipPath><clipPath id="7cb37f35f9"><path d="M 188.417969 146.78125 L 200.269531 142.878906 L 203.820312 153.648438 L 191.96875 157.554688 Z M 188.417969 146.78125 " clip-rule="nonzero"/></clipPath><clipPath id="3cd6b02d6f"><path d="M 222 133 L 232 133 L 232 143 L 222 143 Z M 222 133 " clip-rule="nonzero"/></clipPath><clipPath id="f09ec54c10"><path d="M 221.660156 135.308594 L 230.277344 132.46875 L 232.765625 140.007812 L 224.144531 142.847656 Z M 221.660156 135.308594 " clip-rule="nonzero"/></clipPath><clipPath id="723a359c08"><path d="M 221.660156 135.308594 L 230.277344 132.46875 L 232.765625 140.007812 L 224.144531 142.847656 Z M 221.660156 135.308594 " clip-rule="nonzero"/></clipPath><clipPath id="bb4a516179"><path d="M 230 147 L 246 147 L 246 163 L 230 163 Z M 230 147 " clip-rule="nonzero"/></clipPath><clipPath id="c3127a6221"><path d="M 232.367188 144.59375 L 247.234375 150.175781 L 242.050781 163.980469 L 227.183594 158.398438 Z M 232.367188 144.59375 " clip-rule="nonzero"/></clipPath><clipPath id="20c27dd19a"><path d="M 232.367188 144.59375 L 247.234375 150.175781 L 242.050781 163.980469 L 227.183594 158.398438 Z M 232.367188 144.59375 " clip-rule="nonzero"/></clipPath></defs><g fill="#231f20" fill-opacity="1"><g transform="translate(54.017878, 201.249451)"><g><path d="M 26.578125 -4.089844 C 15.488281 -4.089844 11.585938 -11.523438 9.355469 -19.824219 C 8.238281 -23.851562 7.683594 -27.695312 7.683594 -30.730469 C 7.558594 -35.5 8.921875 -37.855469 11.648438 -37.855469 C 20.382812 -37.855469 24.285156 -35.128906 26.640625 -30.792969 L 33.269531 -38.96875 C 29.925781 -42.5625 25.152344 -44.113281 19.949219 -44.113281 C 9.539062 -44.113281 1.175781 -38.164062 1.175781 -21.621094 C 1.175781 -5.140625 9.539062 0.679688 19.949219 0.679688 C 25.277344 0.679688 30.109375 -0.867188 33.515625 -4.523438 C 31.226562 -4.398438 28.871094 -4.089844 26.578125 -4.089844 Z M 26.578125 -4.089844 "/></g></g></g><g fill="#231f20" fill-opacity="1"><g transform="translate(84.554556, 201.249451)"><g><path d="M 19.703125 0.0625 L 30.914062 0.0625 C 28.808594 -4.027344 28.621094 -6.320312 28.621094 -7.0625 C 28.621094 -7.1875 28.5625 -20.257812 28.5625 -23.355469 L 28.5625 -23.914062 C 28.5625 -26.949219 28.375 -31.96875 21.4375 -31.96875 C 16.976562 -31.96875 11.460938 -27.445312 10.097656 -26.207031 L 10.097656 -47.703125 C 10.097656 -47.703125 0.742188 -43.429688 0.742188 -43.367188 C 3.035156 -41.261719 3.035156 -37.855469 3.035156 -37.855469 L 3.035156 -7.25 C 3.035156 -6.257812 2.972656 -2.726562 0.742188 0.0625 L 12.640625 0.0625 C 10.347656 -3.59375 10.285156 -6.9375 10.285156 -7.25 C 10.285156 -12.886719 10.222656 -18.710938 10.222656 -24.472656 C 12.203125 -25.277344 13.878906 -25.648438 15.242188 -25.648438 C 21.933594 -25.648438 21.992188 -20.816406 21.992188 -20.691406 C 21.992188 -16.171875 21.992188 -11.710938 21.992188 -7.25 C 21.992188 -7 21.871094 -5.390625 19.703125 0.0625 Z M 19.703125 0.0625 "/></g></g></g><g fill="#231f20" fill-opacity="1"><g transform="translate(113.356843, 201.249451)"><g><path d="M 26.390625 -8.117188 C 26.390625 -13.074219 26.390625 -17.160156 26.390625 -22.117188 C 26.390625 -23.292969 26.269531 -27.878906 17.71875 -31.226562 C 13.132812 -33.023438 7.992188 -32.527344 4.460938 -29.054688 L 7.496094 -21.5 C 9.230469 -25.089844 12.824219 -28.128906 16.542969 -28.128906 C 18.460938 -28.128906 18.894531 -23.109375 18.773438 -21.746094 C 14.683594 -19.761719 7.746094 -16.292969 2.355469 -13.566406 C 0.992188 -12.824219 0.433594 -11.585938 0.433594 -10.285156 C 0.433594 -5.886719 6.382812 0.433594 10.160156 0.433594 C 13.566406 0.433594 17.90625 -3.902344 19.144531 -5.140625 L 19.144531 -4.089844 C 19.144531 -0.558594 21.871094 0.0625 21.871094 0.0625 L 28.621094 -2.789062 C 26.453125 -4.523438 26.390625 -7.558594 26.390625 -8.117188 Z M 13.753906 -6.320312 C 12.824219 -6.320312 11.957031 -6.382812 11.152344 -6.566406 C 9.664062 -6.875 8.488281 -8.734375 8.488281 -10.65625 C 8.488281 -12.082031 9.167969 -13.566406 10.84375 -14.621094 C 15.859375 -17.71875 17.90625 -18.957031 18.835938 -19.515625 L 19.144531 -7.125 C 17.964844 -6.628906 15.796875 -6.320312 13.753906 -6.320312 Z M 13.753906 -6.320312 "/></g></g></g><g fill="#231f20" fill-opacity="1"><g transform="translate(139.74339, 201.249451)"><g><path d="M 10.84375 -6.9375 C 10.84375 -7.867188 10.84375 -27.695312 10.84375 -27.695312 L 16.914062 -27.695312 L 18.089844 -30.792969 L 10.71875 -30.792969 L 10.71875 -38.101562 L 0.621094 -27.695312 L 3.59375 -27.695312 C 3.59375 -27.695312 2.910156 -9.914062 2.851562 -7.1875 C 2.789062 -4.398438 4.832031 0.929688 11.214844 0.929688 C 19.761719 0.929688 22.179688 -4.027344 22.179688 -4.027344 C 20.507812 -3.34375 10.84375 -1.984375 10.84375 -6.9375 Z M 10.84375 -6.9375 "/></g></g></g><g fill="#231f20" fill-opacity="1"><g transform="translate(158.882704, 201.249451)"><g><path d="M 35.3125 -30.792969 C 37.792969 -29.117188 38.722656 -26.886719 38.101562 -24.039062 L 33.640625 -7.683594 L 27.445312 -26.390625 C 26.886719 -28.1875 25.585938 -30.046875 23.914062 -29.925781 L 17.65625 -7.558594 C 17.65625 -7.558594 14.496094 -15.675781 12.640625 -21.5 C 11.214844 -25.898438 9.976562 -27.320312 13.257812 -30.792969 L -0.433594 -30.792969 C 1.609375 -28.746094 2.355469 -28.003906 3.40625 -25.339844 C 4.769531 -21.808594 13.011719 0.0625 13.011719 0.0625 L 17.472656 0.0625 L 23.234375 -16.292969 L 29.054688 0.0625 L 33.394531 0.0625 C 33.394531 0.0625 39.652344 -16.664062 41.882812 -23.789062 C 43.058594 -26.453125 44.730469 -28.808594 46.835938 -30.792969 Z M 35.3125 -30.792969 "/></g></g></g><g fill="#231f20" fill-opacity="1"><g transform="translate(202.413476, 201.249451)"><g/></g></g><g fill="#231f20" fill-opacity="1"><g transform="translate(208.79269, 201.249451)"><g/></g></g><g fill="#231f20" fill-opacity="1"><g transform="translate(215.156397, 201.249451)"><g><path d="M 20.878906 -3.964844 C 19.949219 -3.097656 19.269531 -3.097656 18.089844 -3.097656 L 10.59375 -3.097656 L 28.621094 -30.792969 L 0.929688 -30.792969 L 4.707031 -21.808594 L 8.054688 -26.640625 C 8.796875 -27.632812 9.914062 -27.695312 11.027344 -27.695312 L 17.964844 -27.695312 L 0 0 L 28.003906 0 L 26.269531 -7.746094 Z M 20.878906 -3.964844 "/></g></g></g><g fill="#231f20" fill-opacity="1"><g transform="translate(241.171294, 201.249451)"><g><path d="M 26.390625 -8.117188 C 26.390625 -13.074219 26.390625 -17.160156 26.390625 -22.117188 C 26.390625 -23.292969 26.269531 -27.878906 17.71875 -31.226562 C 13.132812 -33.023438 7.992188 -32.527344 4.460938 -29.054688 L 7.496094 -21.5 C 9.230469 -25.089844 12.824219 -28.128906 16.542969 -28.128906 C 18.460938 -28.128906 18.894531 -23.109375 18.773438 -21.746094 C 14.683594 -19.761719 7.746094 -16.292969 2.355469 -13.566406 C 0.992188 -12.824219 0.433594 -11.585938 0.433594 -10.285156 C 0.433594 -5.886719 6.382812 0.433594 10.160156 0.433594 C 13.566406 0.433594 17.90625 -3.902344 19.144531 -5.140625 L 19.144531 -4.089844 C 19.144531 -0.558594 21.871094 0.0625 21.871094 0.0625 L 28.621094 -2.789062 C 26.453125 -4.523438 26.390625 -7.558594 26.390625 -8.117188 Z M 13.753906 -6.320312 C 12.824219 -6.320312 11.957031 -6.382812 11.152344 -6.566406 C 9.664062 -6.875 8.488281 -8.734375 8.488281 -10.65625 C 8.488281 -12.082031 9.167969 -13.566406 10.84375 -14.621094 C 15.859375 -17.71875 17.90625 -18.957031 18.835938 -19.515625 L 19.144531 -7.125 C 17.964844 -6.628906 15.796875 -6.320312 13.753906 -6.320312 Z M 13.753906 -6.320312 "/></g></g></g><g fill="#231f20" fill-opacity="1"><g transform="translate(267.55784, 201.249451)"><g><path d="M 20.195312 -32.03125 C 15.363281 -32.03125 11.585938 -28.066406 10.285156 -26.578125 L 10.285156 -32.152344 L 0.804688 -27.816406 C 2.972656 -26.019531 3.097656 -22.304688 3.097656 -22.304688 L 3.097656 -7.125 C 3.097656 -6.320312 2.972656 -2.664062 0.804688 0 L 12.699219 0 C 10.410156 -3.65625 10.347656 -7 10.347656 -7.3125 L 10.285156 -24.535156 C 11.769531 -25.152344 13.074219 -25.464844 14.125 -25.464844 C 17.964844 -25.464844 19.453125 -22.179688 19.453125 -22.179688 L 25.523438 -29.738281 C 25.523438 -29.738281 24.222656 -32.03125 20.195312 -32.03125 Z M 20.195312 -32.03125 "/></g></g></g><g fill="#231f20" fill-opacity="1"><g transform="translate(289.918143, 201.249451)"><g><path d="M 30.234375 -3.222656 C 27.878906 -5.328125 27.878906 -8.796875 27.878906 -8.796875 L 27.878906 -47.210938 L 18.402344 -42.808594 C 20.753906 -40.703125 20.753906 -37.234375 20.753906 -37.234375 L 20.753906 -29.738281 C 18.027344 -30.976562 15.550781 -31.535156 13.382812 -31.535156 C 5.390625 -31.535156 1.238281 -24.164062 1.238281 -14.808594 C 1.238281 -7.621094 4.273438 0.929688 10.347656 0.929688 C 14.0625 0.929688 19.453125 -3.46875 20.878906 -4.648438 L 20.878906 0.679688 C 20.878906 0.679688 30.234375 -3.160156 30.234375 -3.222656 Z M 20.816406 -6.566406 C 19.761719 -6.070312 17.78125 -5.574219 15.738281 -5.574219 C 13.816406 -5.574219 11.894531 -6.007812 10.78125 -7.371094 C 9.601562 -8.921875 8.984375 -12.824219 8.984375 -16.789062 C 8.984375 -21.1875 9.726562 -25.648438 11.398438 -26.886719 C 13.753906 -28.683594 18.214844 -28.25 19.949219 -25.402344 C 20.445312 -24.65625 20.816406 -23.480469 20.816406 -22.675781 Z M 20.816406 -6.566406 "/></g></g></g><g clip-path="url(#14730ad9a2)"><g clip-path="url(#9573bcc6af)"><g clip-path="url(#fd2ac6f5a2)"><path fill="#5e17eb" d="M 224.015625 148.777344 C 219.351562 148.859375 211.730469 148.304688 208.503906 148.046875 C 208.300781 148.03125 208.101562 148.050781 207.902344 148.109375 C 207.707031 148.167969 207.527344 148.261719 207.367188 148.386719 C 207.207031 148.515625 207.074219 148.667969 206.96875 148.84375 C 206.863281 149.019531 206.796875 149.207031 206.761719 149.410156 C 205.75 155.574219 203.453125 162.691406 202.613281 165.179688 C 202.519531 165.460938 202.503906 165.746094 202.566406 166.035156 C 202.625 166.324219 202.757812 166.578125 202.957031 166.796875 C 207.875 172.164062 211.246094 179.515625 212.441406 182.363281 C 212.769531 183.140625 212.742188 183.910156 212.355469 184.664062 L 208.648438 191.894531 C 208.328125 192.515625 208.164062 193.179688 208.148438 193.878906 C 208.132812 194.578125 208.273438 195.242188 208.566406 195.878906 L 211.433594 202.074219 C 211.695312 202.644531 211.78125 203.238281 211.695312 203.859375 C 211.398438 205.941406 211.597656 213.507812 210.9375 218.140625 C 210.816406 219.007812 212.039062 219.320312 212.351562 218.503906 C 214.121094 213.886719 215.328125 206.609375 216.375 204.253906 C 216.5625 203.828125 216.65625 203.378906 216.648438 202.914062 C 216.640625 202.449219 216.53125 202.007812 216.328125 201.585938 C 215.324219 199.550781 214.628906 197.398438 214.230469 195.992188 C 213.929688 194.929688 214.007812 193.894531 214.464844 192.886719 C 215.550781 190.492188 217.332031 187.414062 218.402344 185.621094 C 218.667969 185.171875 218.796875 184.6875 218.785156 184.164062 C 218.777344 183.644531 218.625 183.164062 218.339844 182.730469 C 214.859375 177.4375 212.050781 171.8125 209.917969 165.851562 C 209.273438 164.050781 209.046875 162.199219 209.242188 160.296875 C 209.65625 156.476562 211.6875 154.589844 213.363281 153.671875 C 214.105469 153.261719 214.898438 153.011719 215.742188 152.921875 C 216.585938 152.828125 217.414062 152.90625 218.226562 153.144531 C 222.480469 154.4375 221.613281 159.367188 221.613281 159.367188 C 221.140625 161.839844 218.5 163.46875 217.222656 164.121094 C 217.140625 164.164062 217.070312 164.222656 217.015625 164.292969 C 216.957031 164.367188 216.917969 164.449219 216.898438 164.539062 C 216.882812 164.632812 216.882812 164.722656 216.902344 164.8125 C 216.925781 164.902344 216.964844 164.984375 217.023438 165.054688 L 218.09375 166.382812 C 218.222656 166.546875 218.394531 166.621094 218.605469 166.609375 L 223.773438 166.316406 C 224.003906 166.304688 224.230469 166.25 224.441406 166.148438 C 224.65625 166.050781 224.84375 165.917969 225.003906 165.75 C 225.164062 165.578125 225.292969 165.386719 225.378906 165.167969 C 225.46875 164.953125 225.515625 164.726562 225.515625 164.492188 L 225.683594 150.429688 C 225.6875 150.207031 225.644531 149.996094 225.5625 149.789062 C 225.476562 149.585938 225.355469 149.40625 225.199219 149.25 C 225.042969 149.09375 224.859375 148.972656 224.65625 148.890625 C 224.449219 148.808594 224.238281 148.769531 224.015625 148.777344 Z M 224.015625 148.777344 " fill-opacity="1" fill-rule="nonzero"/></g></g></g><g clip-path="url(#aca4c9eeeb)"><g clip-path="url(#e527f0122b)"><g clip-path="url(#0ea0e1cde7)"><path fill="#5e17eb" d="M 217.5625 161.039062 C 217.859375 160.796875 218.097656 160.511719 218.28125 160.175781 C 218.464844 159.84375 218.574219 159.484375 218.617188 159.105469 C 218.65625 158.726562 218.625 158.355469 218.519531 157.992188 C 218.410156 157.625 218.238281 157.292969 218 156.996094 C 217.757812 156.699219 217.472656 156.460938 217.140625 156.277344 C 216.804688 156.097656 216.449219 155.984375 216.070312 155.945312 C 215.691406 155.90625 215.316406 155.9375 214.953125 156.046875 C 214.585938 156.152344 214.253906 156.328125 213.957031 156.566406 C 213.660156 156.804688 213.421875 157.09375 213.238281 157.425781 C 213.054688 157.761719 212.945312 158.117188 212.902344 158.496094 C 212.863281 158.875 212.894531 159.246094 213.003906 159.613281 C 213.109375 159.976562 213.28125 160.308594 213.519531 160.605469 C 213.761719 160.902344 214.046875 161.140625 214.382812 161.324219 C 214.714844 161.507812 215.074219 161.617188 215.453125 161.660156 C 215.828125 161.699219 216.203125 161.664062 216.566406 161.558594 C 216.933594 161.449219 217.265625 161.277344 217.5625 161.039062 Z M 217.5625 161.039062 " fill-opacity="1" fill-rule="nonzero"/></g></g></g><g clip-path="url(#d3049d33e7)"><g clip-path="url(#a84acda9a0)"><g clip-path="url(#7cb37f35f9)"><path fill="#ffa800" d="M 193.964844 156.128906 C 193.921875 155.964844 193.921875 155.8125 193.917969 155.664062 C 193.890625 155.246094 193.921875 154.828125 193.878906 154.410156 C 193.84375 154.0625 193.855469 153.714844 193.855469 153.363281 C 193.855469 153.152344 193.832031 152.9375 193.820312 152.71875 C 193.820312 152.671875 193.800781 152.640625 193.753906 152.632812 C 193.5 152.574219 193.285156 152.429688 193.050781 152.324219 C 192.722656 152.171875 192.386719 152.042969 192.042969 151.921875 C 191.71875 151.808594 191.402344 151.671875 191.082031 151.542969 C 190.820312 151.433594 190.558594 151.320312 190.3125 151.183594 C 190.214844 151.132812 190.121094 151.078125 190.046875 150.996094 C 190.019531 150.960938 189.976562 150.945312 189.9375 150.921875 C 189.777344 150.835938 189.695312 150.65625 189.742188 150.503906 C 189.757812 150.457031 189.789062 150.417969 189.820312 150.382812 C 189.910156 150.292969 190.015625 150.21875 190.136719 150.179688 C 190.175781 150.167969 190.207031 150.15625 190.238281 150.132812 C 190.417969 150 190.621094 149.914062 190.832031 149.839844 C 191.125 149.738281 191.417969 149.636719 191.714844 149.539062 C 191.898438 149.480469 192.078125 149.414062 192.265625 149.363281 C 192.609375 149.261719 192.949219 149.164062 193.296875 149.070312 C 193.414062 149.035156 193.542969 149.019531 193.667969 149 C 193.695312 148.992188 193.710938 148.984375 193.710938 148.953125 C 193.714844 148.714844 193.773438 148.480469 193.800781 148.246094 C 193.835938 147.964844 193.863281 147.679688 193.871094 147.398438 C 193.894531 146.832031 193.9375 146.273438 194.007812 145.714844 C 194.023438 145.566406 194.054688 145.417969 194.082031 145.273438 C 194.148438 144.898438 194.449219 144.851562 194.707031 144.96875 C 194.867188 145.046875 194.996094 145.160156 195.109375 145.296875 C 195.507812 145.761719 195.941406 146.203125 196.347656 146.664062 C 196.65625 147.015625 196.949219 147.382812 197.25 147.742188 C 197.289062 147.789062 197.320312 147.804688 197.390625 147.792969 C 197.632812 147.742188 197.882812 147.707031 198.128906 147.664062 C 198.261719 147.636719 198.398438 147.601562 198.53125 147.570312 C 198.769531 147.503906 199.007812 147.429688 199.246094 147.367188 C 199.507812 147.300781 199.777344 147.242188 200.039062 147.175781 C 200.128906 147.152344 200.222656 147.140625 200.308594 147.101562 C 200.417969 147.050781 200.535156 147.058594 200.652344 147.046875 C 200.855469 147.023438 201.0625 146.992188 201.273438 146.992188 C 201.394531 146.992188 201.5 147.027344 201.589844 147.113281 C 201.699219 147.21875 201.730469 147.347656 201.667969 147.492188 C 201.589844 147.664062 201.480469 147.820312 201.363281 147.972656 C 200.9375 148.523438 200.421875 148.996094 199.949219 149.507812 C 199.78125 149.691406 199.613281 149.878906 199.445312 150.058594 C 199.40625 150.101562 199.402344 150.128906 199.4375 150.171875 C 199.703125 150.488281 199.886719 150.859375 200.0625 151.226562 C 200.289062 151.695312 200.511719 152.167969 200.730469 152.644531 C 200.871094 152.953125 201.015625 153.257812 201.101562 153.582031 C 201.140625 153.730469 201.207031 153.859375 201.269531 153.996094 C 201.355469 154.171875 201.339844 154.324219 201.230469 154.429688 C 201.167969 154.484375 201.097656 154.503906 201.019531 154.511719 C 200.796875 154.535156 200.59375 154.488281 200.386719 154.414062 C 200.128906 154.320312 199.898438 154.175781 199.648438 154.070312 C 199.015625 153.804688 198.394531 153.511719 197.78125 153.199219 C 197.738281 153.179688 197.707031 153.179688 197.671875 153.210938 C 197.597656 153.277344 197.523438 153.34375 197.453125 153.421875 C 197.25 153.65625 197.058594 153.898438 196.832031 154.113281 C 196.511719 154.429688 196.234375 154.777344 195.953125 155.125 C 195.617188 155.539062 195.269531 155.941406 194.902344 156.324219 C 194.8125 156.414062 194.71875 156.503906 194.617188 156.582031 C 194.414062 156.746094 194.195312 156.699219 194.09375 156.460938 C 194.050781 156.34375 194.019531 156.222656 193.964844 156.128906 Z M 193.964844 156.128906 " fill-opacity="1" fill-rule="nonzero"/></g></g></g><g clip-path="url(#3cd6b02d6f)"><g clip-path="url(#f09ec54c10)"><g clip-path="url(#723a359c08)"><path fill="#ffa800" d="M 225.605469 141.832031 C 225.574219 141.71875 225.578125 141.609375 225.574219 141.503906 C 225.558594 141.210938 225.582031 140.917969 225.554688 140.625 C 225.535156 140.378906 225.542969 140.136719 225.546875 139.890625 C 225.550781 139.738281 225.535156 139.589844 225.527344 139.4375 C 225.527344 139.402344 225.515625 139.382812 225.480469 139.375 C 225.296875 139.335938 225.140625 139.238281 224.972656 139.164062 C 224.738281 139.0625 224.492188 138.972656 224.25 138.890625 C 224.011719 138.8125 223.785156 138.71875 223.554688 138.628906 C 223.363281 138.554688 223.179688 138.480469 223 138.382812 C 222.929688 138.347656 222.859375 138.3125 222.808594 138.253906 C 222.789062 138.230469 222.757812 138.21875 222.730469 138.203125 C 222.613281 138.144531 222.558594 138.019531 222.59375 137.914062 C 222.605469 137.878906 222.625 137.851562 222.652344 137.824219 C 222.714844 137.761719 222.792969 137.710938 222.878906 137.679688 C 222.90625 137.671875 222.929688 137.660156 222.953125 137.644531 C 223.085938 137.550781 223.230469 137.488281 223.386719 137.4375 C 223.601562 137.359375 223.8125 137.289062 224.027344 137.21875 C 224.160156 137.175781 224.292969 137.125 224.429688 137.089844 C 224.679688 137.015625 224.925781 136.945312 225.175781 136.875 C 225.265625 136.851562 225.355469 136.835938 225.445312 136.820312 C 225.46875 136.816406 225.480469 136.8125 225.480469 136.789062 C 225.484375 136.621094 225.527344 136.457031 225.550781 136.292969 C 225.578125 136.09375 225.597656 135.894531 225.609375 135.695312 C 225.628906 135.296875 225.664062 134.90625 225.71875 134.511719 C 225.734375 134.40625 225.753906 134.304688 225.777344 134.199219 C 225.824219 133.9375 226.046875 133.898438 226.230469 133.980469 C 226.347656 134.035156 226.4375 134.113281 226.519531 134.207031 C 226.804688 134.535156 227.113281 134.839844 227.40625 135.160156 C 227.628906 135.402344 227.835938 135.660156 228.050781 135.910156 C 228.078125 135.945312 228.101562 135.957031 228.152344 135.945312 C 228.328125 135.910156 228.507812 135.882812 228.6875 135.847656 C 228.785156 135.828125 228.886719 135.804688 228.980469 135.777344 C 229.15625 135.730469 229.328125 135.679688 229.5 135.632812 C 229.691406 135.582031 229.886719 135.539062 230.078125 135.492188 C 230.140625 135.472656 230.207031 135.464844 230.273438 135.433594 C 230.351562 135.398438 230.4375 135.40625 230.519531 135.394531 C 230.667969 135.375 230.820312 135.355469 230.972656 135.351562 C 231.058594 135.351562 231.136719 135.375 231.199219 135.433594 C 231.277344 135.507812 231.300781 135.597656 231.253906 135.699219 C 231.195312 135.820312 231.117188 135.933594 231.03125 136.039062 C 230.714844 136.429688 230.339844 136.765625 229.992188 137.128906 C 229.867188 137.261719 229.746094 137.394531 229.621094 137.523438 C 229.59375 137.550781 229.589844 137.570312 229.617188 137.601562 C 229.808594 137.820312 229.9375 138.082031 230.0625 138.335938 C 230.21875 138.667969 230.378906 138.996094 230.53125 139.332031 C 230.632812 139.542969 230.734375 139.757812 230.792969 139.988281 C 230.820312 140.089844 230.871094 140.179688 230.914062 140.273438 C 230.972656 140.398438 230.964844 140.503906 230.878906 140.582031 C 230.835938 140.617188 230.785156 140.632812 230.726562 140.640625 C 230.566406 140.65625 230.417969 140.625 230.269531 140.574219 C 230.085938 140.511719 229.921875 140.410156 229.738281 140.339844 C 229.28125 140.15625 228.832031 139.957031 228.390625 139.742188 C 228.363281 139.730469 228.339844 139.730469 228.316406 139.75 C 228.261719 139.800781 228.203125 139.847656 228.15625 139.902344 C 228.003906 140.066406 227.863281 140.242188 227.699219 140.394531 C 227.464844 140.617188 227.257812 140.863281 227.054688 141.113281 C 226.808594 141.40625 226.554688 141.691406 226.28125 141.960938 C 226.21875 142.027344 226.148438 142.089844 226.074219 142.144531 C 225.925781 142.261719 225.769531 142.230469 225.695312 142.066406 C 225.664062 141.984375 225.644531 141.898438 225.605469 141.832031 Z M 225.605469 141.832031 " fill-opacity="1" fill-rule="nonzero"/></g></g></g><g clip-path="url(#bb4a516179)"><g clip-path="url(#c3127a6221)"><g clip-path="url(#20c27dd19a)"><path fill="#ffa800" d="M 230.308594 158.566406 C 230.398438 158.363281 230.519531 158.207031 230.636719 158.050781 C 230.949219 157.605469 231.316406 157.203125 231.609375 156.746094 C 231.855469 156.363281 232.148438 156.019531 232.429688 155.664062 C 232.605469 155.449219 232.753906 155.210938 232.917969 154.980469 C 232.957031 154.929688 232.960938 154.882812 232.925781 154.835938 C 232.71875 154.574219 232.621094 154.253906 232.476562 153.960938 C 232.273438 153.539062 232.046875 153.136719 231.804688 152.738281 C 231.574219 152.359375 231.375 151.964844 231.160156 151.578125 C 230.992188 151.253906 230.824219 150.933594 230.691406 150.589844 C 230.636719 150.460938 230.585938 150.332031 230.582031 150.1875 C 230.578125 150.128906 230.550781 150.078125 230.53125 150.023438 C 230.441406 149.808594 230.507812 149.558594 230.675781 149.441406 C 230.730469 149.40625 230.792969 149.394531 230.851562 149.382812 C 231.011719 149.363281 231.175781 149.375 231.328125 149.429688 C 231.375 149.449219 231.417969 149.460938 231.464844 149.460938 C 231.75 149.476562 232.019531 149.546875 232.292969 149.644531 C 232.664062 149.777344 233.03125 149.914062 233.402344 150.050781 C 233.632812 150.136719 233.867188 150.21875 234.09375 150.3125 C 234.511719 150.488281 234.929688 150.664062 235.34375 150.847656 C 235.492188 150.910156 235.628906 150.992188 235.769531 151.074219 C 235.804688 151.089844 235.828125 151.097656 235.851562 151.0625 C 236.046875 150.824219 236.292969 150.632812 236.511719 150.417969 C 236.773438 150.160156 237.027344 149.894531 237.265625 149.613281 C 237.742188 149.054688 238.238281 148.523438 238.757812 148.011719 C 238.894531 147.875 239.042969 147.75 239.1875 147.621094 C 239.554688 147.292969 239.890625 147.488281 240.046875 147.816406 C 240.144531 148.023438 240.179688 148.242188 240.183594 148.472656 C 240.199219 149.269531 240.273438 150.0625 240.300781 150.859375 C 240.324219 151.46875 240.320312 152.078125 240.324219 152.6875 C 240.324219 152.765625 240.34375 152.808594 240.421875 152.851562 C 240.703125 152.996094 240.976562 153.160156 241.253906 153.3125 C 241.410156 153.394531 241.574219 153.46875 241.730469 153.542969 C 242.019531 153.667969 242.3125 153.785156 242.601562 153.914062 C 242.914062 154.054688 243.222656 154.210938 243.539062 154.359375 C 243.644531 154.40625 243.746094 154.46875 243.867188 154.5 C 244.015625 154.535156 244.125 154.640625 244.246094 154.71875 C 244.46875 154.859375 244.699219 155 244.90625 155.167969 C 245.023438 155.261719 245.101562 155.382812 245.121094 155.542969 C 245.144531 155.742188 245.070312 155.898438 244.890625 155.988281 C 244.675781 156.105469 244.441406 156.175781 244.207031 156.234375 C 243.339844 156.449219 242.449219 156.515625 241.566406 156.65625 C 241.253906 156.703125 240.9375 156.761719 240.621094 156.808594 C 240.554688 156.820312 240.523438 156.84375 240.523438 156.917969 C 240.535156 157.453125 240.414062 157.976562 240.292969 158.492188 C 240.132812 159.152344 239.976562 159.816406 239.804688 160.472656 C 239.699219 160.898438 239.59375 161.324219 239.414062 161.726562 C 239.335938 161.90625 239.296875 162.09375 239.25 162.28125 C 239.191406 162.527344 239.054688 162.671875 238.859375 162.6875 C 238.757812 162.695312 238.667969 162.660156 238.585938 162.601562 C 238.347656 162.449219 238.183594 162.234375 238.039062 161.992188 C 237.859375 161.695312 237.75 161.359375 237.585938 161.054688 C 237.175781 160.269531 236.796875 159.46875 236.441406 158.660156 C 236.417969 158.605469 236.386719 158.582031 236.328125 158.585938 C 236.199219 158.59375 236.074219 158.597656 235.941406 158.625 C 235.550781 158.695312 235.164062 158.789062 234.769531 158.828125 C 234.199219 158.886719 233.640625 159.015625 233.082031 159.144531 C 232.417969 159.296875 231.75 159.425781 231.078125 159.515625 C 230.917969 159.535156 230.753906 159.550781 230.585938 159.550781 C 230.253906 159.550781 230.078125 159.324219 230.164062 159.003906 C 230.21875 158.847656 230.285156 158.703125 230.308594 158.566406 Z M 230.308594 158.566406 " fill-opacity="1" fill-rule="nonzero"/></g></g></g></svg>